<mxfile host="Electron" agent="Mozilla/5.0 (X11; Linux x86_64) AppleWebKit/537.36 (KHTML, like Gecko) draw.io/28.1.2 Chrome/138.0.7204.243 Electron/37.4.0 Safari/537.36" version="28.1.2">
  <diagram name="Page-1" id="_z8A0ySOr2AwadNRh9Cy">
    <mxGraphModel dx="1612" dy="992" grid="1" gridSize="10" guides="1" tooltips="1" connect="1" arrows="1" fold="1" page="1" pageScale="1" pageWidth="850" pageHeight="1100" math="0" shadow="0">
      <root>
        <mxCell id="0" />
        <mxCell id="1" parent="0" />
        <mxCell id="kpRXOnEVf18vjzhTVsNZ-5" value="" style="rounded=0;whiteSpace=wrap;html=1;fontSize=11;" vertex="1" parent="1">
          <mxGeometry x="260" y="45" width="390" height="105" as="geometry" />
        </mxCell>
        <mxCell id="kpRXOnEVf18vjzhTVsNZ-1" value="" style="rounded=0;whiteSpace=wrap;html=1;" vertex="1" parent="1">
          <mxGeometry x="310" y="70" width="120" height="60" as="geometry" />
        </mxCell>
        <mxCell id="kpRXOnEVf18vjzhTVsNZ-2" value="Key (String)" style="rounded=0;whiteSpace=wrap;html=1;" vertex="1" parent="1">
          <mxGeometry x="310" y="70" width="120" height="60" as="geometry" />
        </mxCell>
        <mxCell id="kpRXOnEVf18vjzhTVsNZ-7" style="edgeStyle=orthogonalEdgeStyle;rounded=0;orthogonalLoop=1;jettySize=auto;html=1;" edge="1" parent="1" source="kpRXOnEVf18vjzhTVsNZ-3" target="kpRXOnEVf18vjzhTVsNZ-4">
          <mxGeometry relative="1" as="geometry" />
        </mxCell>
        <mxCell id="kpRXOnEVf18vjzhTVsNZ-9" style="edgeStyle=orthogonalEdgeStyle;rounded=0;orthogonalLoop=1;jettySize=auto;html=1;" edge="1" parent="1" source="kpRXOnEVf18vjzhTVsNZ-3" target="kpRXOnEVf18vjzhTVsNZ-8">
          <mxGeometry relative="1" as="geometry" />
        </mxCell>
        <mxCell id="kpRXOnEVf18vjzhTVsNZ-3" value="Defination" style="rounded=0;whiteSpace=wrap;html=1;" vertex="1" parent="1">
          <mxGeometry x="460" y="70" width="120" height="60" as="geometry" />
        </mxCell>
        <mxCell id="kpRXOnEVf18vjzhTVsNZ-4" value="Object" style="rounded=0;whiteSpace=wrap;html=1;" vertex="1" parent="1">
          <mxGeometry x="530" y="180" width="120" height="60" as="geometry" />
        </mxCell>
        <mxCell id="kpRXOnEVf18vjzhTVsNZ-6" value="Object" style="text;html=1;align=center;verticalAlign=middle;whiteSpace=wrap;rounded=0;" vertex="1" parent="1">
          <mxGeometry x="410" y="40" width="60" height="30" as="geometry" />
        </mxCell>
        <mxCell id="kpRXOnEVf18vjzhTVsNZ-8" value="String" style="rounded=0;whiteSpace=wrap;html=1;" vertex="1" parent="1">
          <mxGeometry x="390" y="180" width="120" height="60" as="geometry" />
        </mxCell>
        <mxCell id="kpRXOnEVf18vjzhTVsNZ-10" value="" style="shape=flexArrow;endArrow=classic;html=1;rounded=0;" edge="1" parent="1">
          <mxGeometry width="50" height="50" relative="1" as="geometry">
            <mxPoint x="497" y="209.76" as="sourcePoint" />
            <mxPoint x="557" y="209.76" as="targetPoint" />
          </mxGeometry>
        </mxCell>
        <mxCell id="kpRXOnEVf18vjzhTVsNZ-12" value="&lt;h1 style=&quot;margin-top: 0px;&quot;&gt;&lt;font style=&quot;font-size: 17px;&quot;&gt;Predefinied Keys List&lt;/font&gt;&lt;/h1&gt;&lt;p&gt;&lt;/p&gt;&lt;ul&gt;&lt;li&gt;Camera type&lt;/li&gt;&lt;li&gt;Camera lens&lt;/li&gt;&lt;li&gt;Camera motion&lt;/li&gt;&lt;li&gt;Shot type&lt;/li&gt;&lt;li&gt;Scene discription&lt;/li&gt;&lt;li&gt;Character&lt;/li&gt;&lt;li&gt;Object/prop&lt;/li&gt;&lt;li&gt;Scene composition&lt;/li&gt;&lt;li&gt;background_setting&lt;/li&gt;&lt;li&gt;main_subject&lt;/li&gt;&lt;li&gt;visual_style&lt;/li&gt;&lt;li&gt;lighting_mood&lt;/li&gt;&lt;li&gt;Color pallete&lt;/li&gt;&lt;li&gt;audio_cue&lt;/li&gt;&lt;li&gt;subtitles&lt;/li&gt;&lt;/ul&gt;&lt;p&gt;&lt;/p&gt;" style="text;html=1;whiteSpace=wrap;overflow=hidden;rounded=0;" vertex="1" parent="1">
          <mxGeometry x="90" y="180" width="230" height="280" as="geometry" />
        </mxCell>
        <mxCell id="kpRXOnEVf18vjzhTVsNZ-13" value="" style="rounded=0;whiteSpace=wrap;html=1;" vertex="1" parent="1">
          <mxGeometry x="560" y="610" width="470" height="170" as="geometry" />
        </mxCell>
        <mxCell id="kpRXOnEVf18vjzhTVsNZ-27" value="" style="rounded=0;whiteSpace=wrap;html=1;fillColor=#0050ef;fontColor=#ffffff;strokeColor=#001DBC;" vertex="1" parent="1">
          <mxGeometry x="570" y="630" width="450" height="90" as="geometry" />
        </mxCell>
        <mxCell id="kpRXOnEVf18vjzhTVsNZ-15" value="Key" style="rounded=1;whiteSpace=wrap;html=1;" vertex="1" parent="1">
          <mxGeometry x="580" y="640" width="120" height="20" as="geometry" />
        </mxCell>
        <mxCell id="kpRXOnEVf18vjzhTVsNZ-16" value="Defination" style="rounded=1;whiteSpace=wrap;html=1;" vertex="1" parent="1">
          <mxGeometry x="720" y="640" width="120" height="20" as="geometry" />
        </mxCell>
        <mxCell id="kpRXOnEVf18vjzhTVsNZ-17" value="Add object" style="rounded=1;whiteSpace=wrap;html=1;" vertex="1" parent="1">
          <mxGeometry x="758.75" y="740" width="72.5" height="30" as="geometry" />
        </mxCell>
        <mxCell id="kpRXOnEVf18vjzhTVsNZ-32" style="edgeStyle=orthogonalEdgeStyle;rounded=0;orthogonalLoop=1;jettySize=auto;html=1;fillColor=#60a917;strokeColor=#2D7600;" edge="1" parent="1" source="kpRXOnEVf18vjzhTVsNZ-18" target="kpRXOnEVf18vjzhTVsNZ-19">
          <mxGeometry relative="1" as="geometry" />
        </mxCell>
        <mxCell id="kpRXOnEVf18vjzhTVsNZ-18" value="Convert defination to object (Sub object)" style="rounded=1;whiteSpace=wrap;html=1;" vertex="1" parent="1">
          <mxGeometry x="850" y="640" width="160" height="40" as="geometry" />
        </mxCell>
        <mxCell id="kpRXOnEVf18vjzhTVsNZ-19" value="" style="rounded=0;whiteSpace=wrap;html=1;" vertex="1" parent="1">
          <mxGeometry x="1060" y="610" width="540" height="270" as="geometry" />
        </mxCell>
        <mxCell id="kpRXOnEVf18vjzhTVsNZ-41" value="" style="rounded=0;whiteSpace=wrap;html=1;fillColor=#a20025;fontColor=#ffffff;strokeColor=#6F0000;" vertex="1" parent="1">
          <mxGeometry x="1070" y="630" width="520" height="180" as="geometry" />
        </mxCell>
        <mxCell id="kpRXOnEVf18vjzhTVsNZ-20" value="Key" style="rounded=1;whiteSpace=wrap;html=1;" vertex="1" parent="1">
          <mxGeometry x="1080" y="640" width="120" height="20" as="geometry" />
        </mxCell>
        <mxCell id="kpRXOnEVf18vjzhTVsNZ-22" value="Add sub object" style="rounded=1;whiteSpace=wrap;html=1;" vertex="1" parent="1">
          <mxGeometry x="1220" y="770" width="110" height="30" as="geometry" />
        </mxCell>
        <mxCell id="kpRXOnEVf18vjzhTVsNZ-31" value="" style="rounded=0;whiteSpace=wrap;html=1;fillColor=#0050ef;fontColor=#ffffff;strokeColor=#001DBC;" vertex="1" parent="1">
          <mxGeometry x="1130" y="670" width="450" height="90" as="geometry" />
        </mxCell>
        <mxCell id="kpRXOnEVf18vjzhTVsNZ-24" value="Key" style="rounded=1;whiteSpace=wrap;html=1;" vertex="1" parent="1">
          <mxGeometry x="1140" y="680" width="120" height="20" as="geometry" />
        </mxCell>
        <mxCell id="kpRXOnEVf18vjzhTVsNZ-25" value="Defination" style="rounded=1;whiteSpace=wrap;html=1;" vertex="1" parent="1">
          <mxGeometry x="1280" y="680" width="120" height="20" as="geometry" />
        </mxCell>
        <mxCell id="kpRXOnEVf18vjzhTVsNZ-26" style="edgeStyle=orthogonalEdgeStyle;rounded=0;orthogonalLoop=1;jettySize=auto;html=1;entryX=-0.003;entryY=0.617;entryDx=0;entryDy=0;entryPerimeter=0;" edge="1" parent="1" source="kpRXOnEVf18vjzhTVsNZ-20" target="kpRXOnEVf18vjzhTVsNZ-24">
          <mxGeometry relative="1" as="geometry">
            <Array as="points">
              <mxPoint x="1120" y="692" />
            </Array>
          </mxGeometry>
        </mxCell>
        <mxCell id="kpRXOnEVf18vjzhTVsNZ-48" style="edgeStyle=orthogonalEdgeStyle;rounded=0;orthogonalLoop=1;jettySize=auto;html=1;entryX=0.5;entryY=1;entryDx=0;entryDy=0;fillColor=#a20025;strokeColor=#6F0000;" edge="1" parent="1" source="kpRXOnEVf18vjzhTVsNZ-33" target="kpRXOnEVf18vjzhTVsNZ-13">
          <mxGeometry relative="1" as="geometry" />
        </mxCell>
        <mxCell id="kpRXOnEVf18vjzhTVsNZ-33" value="Delete object" style="rounded=1;whiteSpace=wrap;html=1;" vertex="1" parent="1">
          <mxGeometry x="1410" y="730" width="160" height="20" as="geometry" />
        </mxCell>
        <mxCell id="kpRXOnEVf18vjzhTVsNZ-40" style="edgeStyle=orthogonalEdgeStyle;rounded=0;orthogonalLoop=1;jettySize=auto;html=1;entryX=0.5;entryY=1;entryDx=0;entryDy=0;fillColor=#a20025;strokeColor=#6F0000;" edge="1" parent="1" source="kpRXOnEVf18vjzhTVsNZ-34" target="kpRXOnEVf18vjzhTVsNZ-36">
          <mxGeometry relative="1" as="geometry" />
        </mxCell>
        <mxCell id="kpRXOnEVf18vjzhTVsNZ-34" value="Delete obejct" style="rounded=1;whiteSpace=wrap;html=1;" vertex="1" parent="1">
          <mxGeometry x="850" y="690" width="160" height="20" as="geometry" />
        </mxCell>
        <mxCell id="kpRXOnEVf18vjzhTVsNZ-36" value="" style="rounded=0;whiteSpace=wrap;html=1;" vertex="1" parent="1">
          <mxGeometry x="60" y="610" width="470" height="140" as="geometry" />
        </mxCell>
        <mxCell id="kpRXOnEVf18vjzhTVsNZ-39" style="edgeStyle=orthogonalEdgeStyle;rounded=0;orthogonalLoop=1;jettySize=auto;html=1;entryX=0;entryY=0.5;entryDx=0;entryDy=0;fillColor=#60a917;strokeColor=#2D7600;" edge="1" parent="1" source="kpRXOnEVf18vjzhTVsNZ-38" target="kpRXOnEVf18vjzhTVsNZ-13">
          <mxGeometry relative="1" as="geometry" />
        </mxCell>
        <mxCell id="kpRXOnEVf18vjzhTVsNZ-38" value="Add object" style="rounded=1;whiteSpace=wrap;html=1;" vertex="1" parent="1">
          <mxGeometry x="258.75" y="635" width="72.5" height="30" as="geometry" />
        </mxCell>
        <mxCell id="kpRXOnEVf18vjzhTVsNZ-43" value="Add object" style="rounded=1;whiteSpace=wrap;html=1;" vertex="1" parent="1">
          <mxGeometry x="1293.75" y="830" width="72.5" height="30" as="geometry" />
        </mxCell>
        <mxCell id="kpRXOnEVf18vjzhTVsNZ-50" style="edgeStyle=orthogonalEdgeStyle;rounded=0;orthogonalLoop=1;jettySize=auto;html=1;entryX=0.5;entryY=1;entryDx=0;entryDy=0;fillColor=#a20025;strokeColor=#6F0000;" edge="1" parent="1" source="kpRXOnEVf18vjzhTVsNZ-44" target="kpRXOnEVf18vjzhTVsNZ-36">
          <mxGeometry relative="1" as="geometry">
            <Array as="points">
              <mxPoint x="1430" y="920" />
              <mxPoint x="295" y="920" />
            </Array>
          </mxGeometry>
        </mxCell>
        <mxCell id="kpRXOnEVf18vjzhTVsNZ-44" value="Delete object" style="rounded=1;whiteSpace=wrap;html=1;" vertex="1" parent="1">
          <mxGeometry x="1380" y="770" width="100" height="30" as="geometry" />
        </mxCell>
        <mxCell id="kpRXOnEVf18vjzhTVsNZ-46" value="Convert defination to object (Sub object)" style="rounded=1;whiteSpace=wrap;html=1;" vertex="1" parent="1">
          <mxGeometry x="1410" y="680" width="160" height="40" as="geometry" />
        </mxCell>
      </root>
    </mxGraphModel>
  </diagram>
</mxfile>
